<svg xmlns="http://www.w3.org/2000/svg" viewBox="0 0 1600 900" role="img" aria-labelledby="title desc">
  <title id="title">Glowcode Grove preview</title>
  <desc id="desc">A bright firefly sends short and long golden pulses through a layered moonlit forest.</desc>
  <defs>
    <linearGradient id="sky" x1="0" y1="0" x2="0" y2="1">
      <stop stop-color="#252858"/>
      <stop offset="1" stop-color="#0b1026"/>
    </linearGradient>
    <radialGradient id="halo">
      <stop stop-color="#ffe8a3" stop-opacity=".82"/>
      <stop offset=".35" stop-color="#ffbd54" stop-opacity=".28"/>
      <stop offset="1" stop-color="#ffbd54" stop-opacity="0"/>
    </radialGradient>
    <filter id="blur"><feGaussianBlur stdDeviation="12"/></filter>
  </defs>
  <rect width="1600" height="900" fill="url(#sky)"/>
  <circle cx="1250" cy="175" r="112" fill="#fff6d8"/>
  <circle cx="1199" cy="126" r="114" fill="#252858"/>
  <g fill="#ffe39b">
    <circle cx="210" cy="180" r="5"/><circle cx="360" cy="320" r="4"/><circle cx="1405" cy="360" r="5"/><circle cx="1320" cy="535" r="3"/><circle cx="105" cy="515" r="4"/>
  </g>
  <path d="M0 650L0 475l85 85 55-235 74 224 98-150 85 181 82-287 78 265 86-135 95 151 102-254 80 236 84-174 85 187 82-277 88 268 80-132 70 122 91-222 80 237 120-106 0 461z" fill="#28354b" opacity=".75"/>
  <path d="M0 900V655l122-90 82 73 96-231 82 243 112-128 101 147 112-298 95 287 92-173 104 178 116-236 91 226 103-160 83 176 111-262 100 263v240z" fill="#111827"/>
  <path d="M0 720c280-55 442-72 626-45 228 34 398 48 974-36v261H0z" fill="#090d1b"/>
  <path d="M-30 480c250 4 442 48 630 102" fill="none" stroke="#34371f" stroke-width="34" stroke-linecap="round"/>
  <path d="M1630 455c-258 12-448 53-631 124" fill="none" stroke="#34371f" stroke-width="34" stroke-linecap="round"/>
  <circle cx="800" cy="442" r="250" fill="url(#halo)" filter="url(#blur)"/>
  <g fill="none" stroke="#ffe39b" stroke-linecap="round">
    <path d="M430 438h22" stroke-width="18"/><path d="M505 438h72" stroke-width="18"/><path d="M1022 438h22" stroke-width="18"/><path d="M1094 438h72" stroke-width="18"/>
  </g>
  <g transform="translate(800 420)">
    <ellipse cx="-62" cy="-18" rx="69" ry="104" fill="#fff6d8" fill-opacity=".18" stroke="#fff6d8" stroke-opacity=".7" stroke-width="5" transform="rotate(-28)"/>
    <ellipse cx="62" cy="-18" rx="69" ry="104" fill="#fff6d8" fill-opacity=".18" stroke="#fff6d8" stroke-opacity=".7" stroke-width="5" transform="rotate(28)"/>
    <ellipse rx="50" ry="82" fill="#272838"/>
    <circle cy="-83" r="31" fill="#272838"/>
    <ellipse cy="35" rx="35" ry="42" fill="#ffe39b"/>
    <ellipse cy="35" rx="35" ry="42" fill="#ffe39b" filter="url(#blur)"/>
  </g>
  <text x="800" y="735" fill="#fff6d8" font-family="Georgia,serif" font-size="98" text-anchor="middle">Glowcode Grove</text>
  <text x="800" y="800" fill="#ffe39b" font-family="system-ui,sans-serif" font-size="28" font-weight="700" letter-spacing="9" text-anchor="middle">REMEMBER THE LIGHT</text>
</svg>
